<svg width="121" height="121" viewBox="0 0 121 121" fill="none" xmlns="http://www.w3.org/2000/svg">
<path d="M60.5 121C60.0761 121.003 59.6588 120.894 59.29 120.685L1.21 89.2254C1.03544 89.1326 0.872891 89.0189 0.726 88.8866C0.505173 88.6973 0.326473 88.4638 0.201426 88.2012C0.0763786 87.9386 0.00776148 87.6527 0 87.362L0 65.1706C0.00934396 64.7872 0.116515 64.4125 0.311342 64.0822C0.506169 63.7518 0.782187 63.4767 1.1132 63.283C1.48109 63.0706 1.8984 62.9588 2.3232 62.9588C2.748 62.9588 3.16531 63.0706 3.5332 63.283L60.5 94.0412L117.467 63.2588C117.835 63.0464 118.252 62.9346 118.677 62.9346C119.102 62.9346 119.519 63.0464 119.887 63.2588C120.218 63.4525 120.494 63.7276 120.689 64.058C120.883 64.3883 120.991 64.763 121 65.1464V87.362C121.002 87.6591 120.941 87.9532 120.819 88.2245C120.698 88.4958 120.521 88.7381 120.298 88.935C120.151 89.0673 119.989 89.181 119.814 89.2738L61.7342 120.734C61.3536 120.93 60.9277 121.022 60.5 121ZM4.6948 86.1036L60.5 116.16L116.305 86.1036V68.97L61.71 98.4698C61.3421 98.6822 60.9248 98.794 60.5 98.794C60.0752 98.794 59.6579 98.6822 59.29 98.4698L4.6948 68.97V86.1036Z" fill="#1B58DC"/>
<path d="M60.5 89.5398C60.0864 89.5459 59.6781 89.446 59.3142 89.2494L1.2342 57.7894C0.872406 57.6219 0.564913 57.3561 0.346719 57.0224C0.128526 56.6887 0.00839568 56.3004 1.78666e-06 55.9018V33.6862C-0.000513137 33.2886 0.110285 32.8988 0.319852 32.561C0.52942 32.2231 0.829389 31.9506 1.1858 31.7744C1.55369 31.562 1.971 31.4502 2.3958 31.4502C2.8206 31.4502 3.23792 31.562 3.6058 31.7744L60.5 62.581L67.76 58.588C68.1279 58.3756 68.5452 58.2638 68.97 58.2638C69.3948 58.2638 69.8121 58.3756 70.18 58.588L90.75 69.6958C91.0996 69.8805 91.3937 70.1549 91.6021 70.4909C91.8105 70.8269 91.9257 71.2124 91.9358 71.6076C91.9309 72.004 91.8178 72.3916 91.6088 72.7285C91.3999 73.0654 91.1029 73.3388 90.75 73.5194L61.71 89.2252C61.3412 89.4342 60.9239 89.5427 60.5 89.5398V89.5398ZM4.6948 54.6192L60.5 84.6998L84.8694 71.5108L69.0184 62.944L61.7584 66.9128C61.3862 67.1119 60.9705 67.2161 60.5484 67.2161C60.1263 67.2161 59.7106 67.1119 59.3384 66.9128L4.6948 37.4856V54.6192Z" fill="#1B58DC"/>
<path d="M22.8447 78.4321C22.4721 78.4186 22.1077 78.3192 21.7799 78.1417L1.18569 67.0581C0.834604 66.8802 0.539677 66.6085 0.333649 66.2732C0.127622 65.9379 0.0185547 65.552 0.0185547 65.1584C0.0185547 64.7648 0.127622 64.379 0.333649 64.0436C0.539677 63.7083 0.834604 63.4366 1.18569 63.2587L9.67989 58.6123C10.0478 58.3999 10.4651 58.2881 10.8899 58.2881C11.3147 58.2881 11.732 58.3999 12.0999 58.6123L32.6457 69.7201C32.9953 69.9048 33.2894 70.1792 33.4978 70.5152C33.7062 70.8512 33.8214 71.2367 33.8315 71.6319C33.8265 72.0283 33.7135 72.4159 33.5045 72.7528C33.2956 73.0897 32.9986 73.3631 32.6457 73.5437L24.0305 78.1417C23.6665 78.3383 23.2583 78.4382 22.8447 78.4321V78.4321ZM7.01789 65.1463L22.8447 73.7131L26.7167 71.6077L10.8899 63.0409L7.01789 65.1463Z" fill="#1B58DC"/>
<path d="M98.155 78.4316C97.7414 78.4377 97.3331 78.3378 96.9692 78.1412L60.4998 58.4424L53.2398 62.4112C52.8719 62.6236 52.4546 62.7354 52.0298 62.7354C51.605 62.7354 51.1877 62.6236 50.8198 62.4112L30.2498 51.3034C29.8968 51.1228 29.5999 50.8494 29.3909 50.5125C29.182 50.1756 29.0689 49.788 29.064 49.3916C29.0741 48.9964 29.1892 48.6109 29.3976 48.2749C29.606 47.9389 29.9002 47.6645 30.2498 47.4798L59.2898 31.774C59.662 31.5749 60.0776 31.4707 60.4998 31.4707C60.9219 31.4707 61.3375 31.5749 61.7098 31.774L119.79 63.234C120.14 63.4157 120.433 63.6901 120.638 64.0273C120.843 64.3644 120.951 64.7513 120.951 65.1458C120.947 65.5393 120.834 65.924 120.625 66.2572C120.416 66.5904 120.118 66.8591 119.766 67.0334L99.2198 78.1412C98.8919 78.3187 98.5275 78.4181 98.155 78.4316V78.4316ZM60.4998 53.6992C60.9134 53.6931 61.3216 53.7931 61.6856 53.9896L98.155 73.7126L113.958 65.1458L60.4998 36.2994L36.1304 49.3916L51.9814 58.0794L59.2414 54.1106C59.6144 53.8592 60.0502 53.7167 60.4998 53.6992V53.6992Z" fill="#1B58DC"/>
<path d="M98.1552 46.9716C97.7402 46.9652 97.333 46.8572 96.9694 46.6571L60.5 26.9583L24.0306 46.6571C23.6627 46.8694 23.2454 46.9813 22.8206 46.9813C22.3958 46.9813 21.9785 46.8694 21.6106 46.6571L1.1858 35.5734C0.833053 35.3991 0.535514 35.1304 0.326197 34.7972C0.11688 34.464 0.00397162 34.0793 5.44815e-09 33.6858C-2.80485e-05 33.2914 0.108287 32.9044 0.313128 32.5673C0.517969 32.2302 0.811467 31.9558 1.1616 31.7741L59.2416 0.314051C59.6138 0.114926 60.0295 0.0107422 60.4516 0.0107422C60.8737 0.0107422 61.2894 0.114926 61.6616 0.314051L119.742 31.7741C120.092 31.9558 120.385 32.2302 120.59 32.5673C120.795 32.9044 120.903 33.2914 120.903 33.6858C120.899 34.0793 120.786 34.464 120.577 34.7972C120.368 35.1304 120.07 35.3991 119.717 35.5734L99.22 46.6571C98.8942 46.843 98.5297 46.9507 98.1552 46.9716ZM60.5 22.2151C60.9136 22.2089 61.3218 22.3089 61.6858 22.5055L98.1552 42.2285L113.958 33.6858L60.5 4.83945L7.0422 33.8794L22.8448 42.4221L59.3142 22.5055C59.6782 22.3089 60.0864 22.2089 60.5 22.2151V22.2151Z" fill="#1B58DC"/>
<path d="M110.134 62.702C109.721 62.7081 109.312 62.6082 108.948 62.4116L88.4026 51.3038C88.0497 51.1232 87.7527 50.8498 87.5438 50.5129C87.3348 50.176 87.2217 49.7884 87.2168 49.392C87.2269 48.9968 87.3421 48.6113 87.5505 48.2753C87.7589 47.9393 88.053 47.6649 88.4026 47.4802L117.443 31.7744C117.81 31.562 118.228 31.4502 118.653 31.4502C119.077 31.4502 119.495 31.562 119.863 31.7744C120.219 31.9506 120.519 32.2231 120.729 32.561C120.938 32.8988 121.049 33.2886 121.048 33.6862V55.9018C121.044 56.2953 120.932 56.68 120.722 57.0132C120.513 57.3464 120.215 57.615 119.863 57.7894L111.32 62.4116C110.956 62.6082 110.548 62.7081 110.134 62.702ZM94.38 49.392L110.134 58.0798L116.305 54.7402V37.4856L94.38 49.392Z" fill="#1B58DC"/>
</svg>
